<svg width="20" height="16" viewBox="0 0 20 16" fill="none" xmlns="http://www.w3.org/2000/svg">
<path d="M19.4628 6.95923L19.4614 6.95813L11.3021 0.431641C10.9544 0.15332 10.492 0 10.0001 0C9.50828 0 9.04589 0.153198 8.69796 0.431519L0.542984 6.95471C0.540237 6.95691 0.53749 6.95923 0.534743 6.96143C-0.179441 7.53601 -0.17822 8.46826 0.538253 9.04138C0.865587 9.30334 1.29791 9.45508 1.76015 9.47095C1.77892 9.47241 1.79784 9.47314 1.81692 9.47314H2.14212V14.2762C2.14212 15.2267 3.10886 16 4.29733 16H7.48949C7.81301 16 8.07549 15.7902 8.07549 15.5312V11.7656C8.07549 11.3319 8.51651 10.9791 9.05871 10.9791H10.9415C11.4837 10.9791 11.9248 11.3319 11.9248 11.7656V15.5312C11.9248 15.7902 12.1871 16 12.5108 16H15.7029C16.8914 16 17.8581 15.2267 17.8581 14.2762V9.47314H18.1597C18.6514 9.47314 19.1138 9.31995 19.4618 9.04163C20.1791 8.46753 20.1794 7.53369 19.4628 6.95923Z" fill="#55535B"/>
</svg>
