<svg width="19" height="18" viewBox="0 0 19 18" fill="none" xmlns="http://www.w3.org/2000/svg">
<path d="M15.4375 11.6719C14.2642 11.6719 13.2303 12.1845 12.5809 12.964L6.96627 10.4106C7.05949 10.1284 7.125 9.83595 7.125 9.52735C7.125 9.10878 7.02838 8.71084 6.86145 8.34483L12.7374 5.20439C13.3913 5.886 14.3525 6.32813 15.4375 6.32813C17.402 6.32813 19 4.90883 19 3.16406C19 1.41929 17.402 0 15.4375 0C13.473 0 11.875 1.41929 11.875 3.16406C11.875 3.56615 11.9682 3.94756 12.1229 4.30165L6.22943 7.4513C5.57606 6.78994 4.62876 6.36328 3.5625 6.36328C1.59802 6.36328 0 7.78258 0 9.52735C0 11.2721 1.59802 12.6914 3.5625 12.6914C4.75515 12.6914 5.80652 12.1638 6.45347 11.3623L12.0496 13.9074C11.9465 14.203 11.875 14.5107 11.875 14.8359C11.875 16.5807 13.473 18 15.4375 18C17.402 18 19 16.5807 19 14.8359C19 13.0912 17.402 11.6719 15.4375 11.6719Z" fill="#55535B"/>
</svg>
