<svg width="16" height="20" viewBox="0 0 16 20" fill="none" xmlns="http://www.w3.org/2000/svg">
<path opacity="0.4" d="M4.36636 17.7477C4.36682 17.9934 4.45136 18.234 4.61 18.4387L5.38682 19.4422C5.51952 19.6138 5.69951 19.7544 5.91078 19.8518C6.12204 19.9491 6.35803 20 6.59773 20H9.40273C9.64243 20 9.87841 19.9491 10.0897 19.8518C10.3009 19.7544 10.4809 19.6138 10.6136 19.4422L11.3905 18.4387C11.549 18.234 11.6338 17.9936 11.6341 17.7477L11.6359 16.2497H4.36409L4.36636 17.7477ZM0 6.87489C0 8.60806 0.747727 10.1893 1.98 11.3975C2.73091 12.1338 3.90545 13.672 4.35318 14.9697C4.355 14.9798 4.35636 14.99 4.35818 15.0001H11.6418C11.6436 14.99 11.645 14.9802 11.6468 14.9697C12.0945 13.672 13.2691 12.1338 14.02 11.3975C15.2523 10.1893 16 8.60806 16 6.87489C16 3.07067 12.405 -0.0116852 7.975 3.33032e-05C3.33818 0.0121424 0 3.24098 0 6.87489ZM8 3.74996C5.995 3.74996 4.36364 5.15188 4.36364 6.87489C4.36364 7.2202 4.03818 7.49988 3.63636 7.49988C3.23455 7.49988 2.90909 7.2202 2.90909 6.87489C2.90909 4.46244 5.19273 2.49998 8 2.49998C8.40182 2.49998 8.72727 2.77966 8.72727 3.12497C8.72727 3.47028 8.40182 3.74996 8 3.74996Z" fill="#9FA2B4"/>
</svg>
