<svg width="16" height="19" viewBox="0 0 16 19" fill="none" xmlns="http://www.w3.org/2000/svg">
<path d="M13.9219 5.41503C11.9197 1.90003 7.83184 0.855031 4.66169 3.04003C1.57497 5.22503 0.573871 9.97503 2.57607 13.49L2.74292 13.775L2.07552 16.625L4.57827 15.865L4.82854 16.055C5.91307 16.72 7.08102 17.1 8.24897 17.1C9.50034 17.1 10.7517 16.72 11.8362 15.96C14.923 13.68 15.8406 9.02503 13.9219 5.41503ZM12.1699 12.73C11.8362 13.3 11.4191 13.68 10.8351 13.775C10.5014 13.775 10.0843 13.965 8.41582 13.205C6.99759 12.445 5.82964 11.21 4.99539 9.78503C4.49484 9.12003 4.24457 8.26503 4.16114 7.41003C4.16114 6.65003 4.41142 5.98503 4.82854 5.51003C4.99539 5.32003 5.16224 5.22503 5.32909 5.22503H5.74622C5.91307 5.22503 6.07992 5.22503 6.16334 5.60503C6.33019 6.08003 6.74732 7.22003 6.74732 7.31503C6.83074 7.41003 6.83074 7.60003 6.74732 7.69503C6.83074 7.88503 6.74732 8.07503 6.66389 8.17003C6.58047 8.26503 6.49704 8.45503 6.41362 8.55003C6.24677 8.64503 6.16334 8.83503 6.24677 9.02503C6.58047 9.59503 6.99759 10.165 7.41472 10.64C7.91527 11.115 8.41582 11.495 8.99979 11.78C9.16664 11.875 9.33349 11.875 9.41692 11.685C9.50034 11.495 9.91747 11.02 10.0843 10.83C10.2512 10.64 10.3346 10.64 10.5014 10.735L11.8362 11.495C12.0031 11.59 12.1699 11.685 12.2534 11.78C12.3368 12.065 12.3368 12.445 12.1699 12.73Z" fill="#231F20" fill-opacity="0.8"/>
</svg>
