<svg width="15" height="17" viewBox="0 0 15 17" fill="none" xmlns="http://www.w3.org/2000/svg">
<g clip-path="url(#clip0)">
<rect width="13.6978" height="15.4375" transform="translate(0.454102 0.78125)" fill="#FCF1F4" fill-opacity="0.04"/>
<path d="M14.1519 8.5C14.1519 4.23587 11.084 0.78125 7.303 0.78125C3.51941 0.78125 0.454102 4.23587 0.454102 8.5C0.454102 12.3517 2.9578 15.5453 6.23286 16.1237V10.7317H4.49367V8.50048H6.23286V6.79898C6.23286 4.86495 7.25378 3.79687 8.81875 3.79687C9.56828 3.79687 10.3529 3.94739 10.3529 3.94739V5.84668H9.48781C8.63854 5.84668 8.37315 6.44247 8.37315 7.05274V8.5H10.2724L9.96723 10.7312H8.37315V16.1232C11.6456 15.5448 14.1519 12.3512 14.1519 8.49952V8.5Z" fill="#231F20" fill-opacity="0.8"/>
</g>
<defs>
<clipPath id="clip0">
<rect width="13.6978" height="15.4375" fill="white" transform="translate(0.454102 0.78125)"/>
</clipPath>
</defs>
</svg>
